<svg  viewBox="0 0 89 69" fill="none" xmlns="http://www.w3.org/2000/svg">
<rect x="62" y="42" width="27" height="27" fill="#84A9FF"/>
<rect x="52" y="29" width="27" height="27" fill="#6291FF"/>
<path d="M5.092 15.226C4.20533 15.226 3.47067 14.96 2.888 14.428C2.33067 13.896 2.052 13.2247 2.052 12.414C2.052 11.6033 2.33067 10.9447 2.888 10.438C3.47067 9.906 4.20533 9.64 5.092 9.64C5.97867 9.64 6.70067 9.906 7.258 10.438C7.84067 10.9447 8.132 11.6033 8.132 12.414C8.132 13.2247 7.84067 13.896 7.258 14.428C6.70067 14.96 5.97867 15.226 5.092 15.226ZM2.66 37V18.152H7.524V37H2.66ZM12.7149 37V10.4H22.5569C24.6849 10.4 26.4455 10.7547 27.8389 11.464C29.2322 12.1733 30.2709 13.1487 30.9549 14.39C31.6389 15.6313 31.9809 17.0247 31.9809 18.57C31.9809 20.0393 31.6515 21.3947 30.9929 22.636C30.3342 23.852 29.3082 24.84 27.9149 25.6C26.5215 26.3347 24.7355 26.702 22.5569 26.702H17.5789V37H12.7149ZM17.5789 22.75H22.2529C23.9502 22.75 25.1662 22.3827 25.9009 21.648C26.6609 20.888 27.0409 19.862 27.0409 18.57C27.0409 17.2527 26.6609 16.2267 25.9009 15.492C25.1662 14.732 23.9502 14.352 22.2529 14.352H17.5789V22.75ZM40.9934 37.456C39.3721 37.456 38.0421 37.2027 37.0034 36.696C35.9647 36.164 35.1921 35.4673 34.6854 34.606C34.1787 33.7447 33.9254 32.7947 33.9254 31.756C33.9254 30.008 34.6094 28.5893 35.9774 27.5C37.3454 26.4107 39.3974 25.866 42.1334 25.866H46.9214V25.41C46.9214 24.118 46.5541 23.168 45.8194 22.56C45.0847 21.952 44.1727 21.648 43.0834 21.648C42.0954 21.648 41.2341 21.8887 40.4994 22.37C39.7647 22.826 39.3087 23.51 39.1314 24.422H34.3814C34.5081 23.054 34.9641 21.8633 35.7494 20.85C36.5601 19.8367 37.5987 19.064 38.8654 18.532C40.1321 17.9747 41.5507 17.696 43.1214 17.696C45.8067 17.696 47.9221 18.3673 49.4674 19.71C51.0127 21.0527 51.7854 22.9527 51.7854 25.41V37H47.6434L47.1874 33.96C46.6301 34.9733 45.8447 35.8093 44.8314 36.468C43.8434 37.1267 42.5641 37.456 40.9934 37.456ZM42.0954 33.656C43.4887 33.656 44.5654 33.2 45.3254 32.288C46.1107 31.376 46.6047 30.2487 46.8074 28.906H42.6654C41.3734 28.906 40.4487 29.1467 39.8914 29.628C39.3341 30.084 39.0554 30.654 39.0554 31.338C39.0554 32.0727 39.3341 32.6427 39.8914 33.048C40.4487 33.4533 41.1834 33.656 42.0954 33.656ZM58.1522 45.36L62.5222 35.746H61.3822L54.0482 18.152H59.3302L64.6122 31.414L70.1222 18.152H75.2902L63.3202 45.36H58.1522Z" fill="#F4F3FF"/>
</svg>
